<svg width="198" height="60" viewBox="0 0 198 60" fill="none" xmlns="http://www.w3.org/2000/svg">
<g filter="url(#filter0_d_1_7)">
<path d="M13.6935 48.9745C10.7525 48.9745 8.4915 48.3625 6.9105 47.1385C5.3465 45.8975 4.4115 43.9765 4.1055 41.3755C4.0545 40.7465 4.1905 40.2705 4.5135 39.9475C4.8535 39.6075 5.3295 39.4375 5.9415 39.4375C6.5535 39.4375 7.004 39.5905 7.293 39.8965C7.599 40.2025 7.7945 40.6615 7.8795 41.2735C8.0835 42.7695 8.619 43.8065 9.486 44.3845C10.37 44.9455 11.7725 45.226 13.6935 45.226H21.0375C23.3155 45.226 24.871 44.8095 25.704 43.9765C26.554 43.1265 26.979 41.588 26.979 39.361C26.979 37.1 26.5455 35.5445 25.6785 34.6945C24.8285 33.8275 23.2815 33.394 21.0375 33.394H14.5095C11.3645 33.394 9.0355 32.6375 7.5225 31.1245C6.0265 29.6115 5.2785 27.291 5.2785 24.163C5.2785 21.035 6.018 18.723 7.497 17.227C8.993 15.731 11.3135 14.983 14.4585 14.983H20.8845C23.6385 14.983 25.755 15.5695 27.234 16.7425C28.73 17.8985 29.631 19.692 29.937 22.123C30.005 22.752 29.869 23.2365 29.529 23.5765C29.206 23.8995 28.73 24.061 28.101 24.061C27.506 24.061 27.0555 23.908 26.7495 23.602C26.4435 23.279 26.2565 22.82 26.1885 22.225C25.9845 20.916 25.4745 20.0065 24.6585 19.4965C23.8595 18.9865 22.6015 18.7315 20.8845 18.7315H14.4585C12.3505 18.7315 10.914 19.1225 10.149 19.9045C9.401 20.6695 9.027 22.089 9.027 24.163C9.027 26.237 9.4095 27.6735 10.1745 28.4725C10.9565 29.2545 12.4015 29.6455 14.5095 29.6455H21.0375C24.3355 29.6455 26.775 30.436 28.356 32.017C29.937 33.598 30.7275 36.046 30.7275 39.361C30.7275 42.659 29.937 45.09 28.356 46.654C26.775 48.201 24.3355 48.9745 21.0375 48.9745H13.6935ZM37.0049 48.8215C35.8149 48.3455 35.4579 47.521 35.9339 46.348L48.2504 16.462C48.6754 15.476 49.3724 14.983 50.3414 14.983H50.4689C51.4379 15.034 52.1009 15.527 52.4579 16.462L64.9019 46.348C65.3779 47.521 65.0379 48.3455 63.8819 48.8215C62.7089 49.2805 61.8929 48.9405 61.4339 47.8015L58.4504 40.6615H42.3089L39.4274 47.8015C38.9514 48.9575 38.1439 49.2975 37.0049 48.8215ZM43.7879 36.913H56.9204L50.2649 20.9245L43.7879 36.913ZM73.95 49C72.692 49 72.063 48.371 72.063 47.113V16.87C72.063 15.612 72.692 14.983 73.95 14.983H92.5905C93.1685 14.983 93.619 15.153 93.942 15.493C94.282 15.816 94.452 16.275 94.452 16.87C94.452 18.111 93.8315 18.7315 92.5905 18.7315H75.8115V29.9515H86.5215C87.7795 29.9515 88.4085 30.572 88.4085 31.813C88.4085 33.071 87.7795 33.7 86.5215 33.7H75.8115V47.113C75.8115 48.371 75.191 49 73.95 49ZM121.791 49.0765C121.298 49.3995 120.831 49.5015 120.389 49.3825C119.947 49.2635 119.564 48.9575 119.241 48.4645L111.183 35.2555H103.304V47.113C103.304 48.371 102.683 49 101.442 49C100.184 49 99.5552 48.371 99.5552 47.113V16.87C99.5552 15.612 100.184 14.983 101.442 14.983H113.376C116.419 14.983 118.74 15.7905 120.338 17.4055C121.936 19.0035 122.735 21.324 122.735 24.367V25.897C122.735 28.549 122.114 30.657 120.873 32.221C119.649 33.785 117.864 34.7455 115.518 35.1025L122.48 46.5265C123.075 47.5805 122.845 48.4305 121.791 49.0765ZM103.304 31.507H113.376C115.382 31.507 116.819 31.0735 117.686 30.2065C118.553 29.3395 118.986 27.903 118.986 25.897V24.367C118.986 22.361 118.553 20.9245 117.686 20.0575C116.819 19.1735 115.382 18.7315 113.376 18.7315H103.304V31.507ZM141.006 49C137.181 49 134.359 48.099 132.54 46.297C130.738 44.478 129.837 41.656 129.837 37.831V26.101C129.837 22.242 130.738 19.42 132.54 17.635C134.359 15.833 137.172 14.949 140.98 14.983H147.126C150.951 14.983 153.764 15.884 155.566 17.686C157.368 19.488 158.269 22.31 158.269 26.152V37.831C158.269 41.656 157.368 44.478 155.566 46.297C153.764 48.099 150.951 49 147.126 49H141.006ZM141.006 45.2515H147.126C148.979 45.2515 150.441 45.022 151.512 44.563C152.6 44.104 153.373 43.339 153.832 42.268C154.291 41.18 154.521 39.701 154.521 37.831V26.152C154.521 24.299 154.291 22.837 153.832 21.766C153.373 20.678 152.6 19.9045 151.512 19.4455C150.441 18.9695 148.979 18.7315 147.126 18.7315H140.98C139.127 18.7145 137.665 18.9355 136.594 19.3945C135.523 19.8365 134.75 20.6015 134.274 21.6895C133.815 22.7605 133.585 24.231 133.585 26.101V37.831C133.585 39.701 133.815 41.18 134.274 42.268C134.733 43.339 135.498 44.104 136.569 44.563C137.657 45.022 139.136 45.2515 141.006 45.2515ZM176.057 48.9745C173.116 48.9745 170.855 48.3625 169.274 47.1385C167.71 45.8975 166.775 43.9765 166.469 41.3755C166.418 40.7465 166.554 40.2705 166.877 39.9475C167.217 39.6075 167.693 39.4375 168.305 39.4375C168.917 39.4375 169.367 39.5905 169.656 39.8965C169.962 40.2025 170.158 40.6615 170.243 41.2735C170.447 42.7695 170.982 43.8065 171.849 44.3845C172.733 44.9455 174.136 45.226 176.057 45.226H183.401C185.679 45.226 187.234 44.8095 188.067 43.9765C188.917 43.1265 189.342 41.588 189.342 39.361C189.342 37.1 188.909 35.5445 188.042 34.6945C187.192 33.8275 185.645 33.394 183.401 33.394H176.873C173.728 33.394 171.399 32.6375 169.886 31.1245C168.39 29.6115 167.642 27.291 167.642 24.163C167.642 21.035 168.381 18.723 169.86 17.227C171.356 15.731 173.677 14.983 176.822 14.983H183.248C186.002 14.983 188.118 15.5695 189.597 16.7425C191.093 17.8985 191.994 19.692 192.3 22.123C192.368 22.752 192.232 23.2365 191.892 23.5765C191.569 23.8995 191.093 24.061 190.464 24.061C189.869 24.061 189.419 23.908 189.113 23.602C188.807 23.279 188.62 22.82 188.552 22.225C188.348 20.916 187.838 20.0065 187.022 19.4965C186.223 18.9865 184.965 18.7315 183.248 18.7315H176.822C174.714 18.7315 173.277 19.1225 172.512 19.9045C171.764 20.6695 171.39 22.089 171.39 24.163C171.39 26.237 171.773 27.6735 172.538 28.4725C173.32 29.2545 174.765 29.6455 176.873 29.6455H183.401C186.699 29.6455 189.138 30.436 190.719 32.017C192.3 33.598 193.091 36.046 193.091 39.361C193.091 42.659 192.3 45.09 190.719 46.654C189.138 48.201 186.699 48.9745 183.401 48.9745H176.057Z" fill="black"/>
</g>
<defs>
<filter id="filter0_d_1_7" x="0.029007" y="14.932" width="197.062" height="42.629" filterUnits="userSpaceOnUse" color-interpolation-filters="sRGB">
<feFlood flood-opacity="0" result="BackgroundImageFix"/>
<feColorMatrix in="SourceAlpha" type="matrix" values="0 0 0 0 0 0 0 0 0 0 0 0 0 0 0 0 0 0 127 0" result="hardAlpha"/>
<feOffset dy="4"/>
<feGaussianBlur stdDeviation="2"/>
<feComposite in2="hardAlpha" operator="out"/>
<feColorMatrix type="matrix" values="0 0 0 0 0.149042 0 0 0 0 0.414041 0 0 0 0 0.811538 0 0 0 0.4 0"/>
<feBlend mode="normal" in2="BackgroundImageFix" result="effect1_dropShadow_1_7"/>
<feBlend mode="normal" in="SourceGraphic" in2="effect1_dropShadow_1_7" result="shape"/>
</filter>
</defs>
</svg>
